<?xml version="1.0" standalone="no"?>
<!DOCTYPE svg PUBLIC "-//W3C//DTD SVG 20010904//EN"
 "http://www.w3.org/TR/2001/REC-SVG-20010904/DTD/svg10.dtd">
<svg version="1.0" xmlns="http://www.w3.org/2000/svg"
 width="700.000000pt" height="700.000000pt" viewBox="0 0 700.000000 700.000000"
 preserveAspectRatio="xMidYMid meet">
<metadata>
Created by potrace 1.11, written by Peter Selinger 2001-2013
</metadata>
<g transform="translate(0.000000,700.000000) scale(0.100000,-0.100000)"
fill="#000000" stroke="none">
<path d="M0 3500 l0 -3500 3500 0 3500 0 0 3500 0 3500 -3500 0 -3500 0 0
-3500z m1708 1572 l433 -303 105 62 c320 189 692 302 1091 331 483 35 1004
-87 1417 -331 l105 -62 442 310 c244 171 446 308 450 304 13 -13 58 -193 80
-318 31 -172 38 -504 14 -681 -20 -153 -63 -346 -103 -464 l-29 -84 53 -111
c59 -124 130 -324 163 -461 l23 -91 -47 -93 c-98 -195 -231 -388 -396 -575
-88 -100 -228 -235 -244 -235 -3 0 -57 36 -119 80 -63 44 -117 80 -121 80 -3
0 -3 -66 1 -147 4 -82 7 -159 8 -173 1 -20 -13 -34 -79 -77 -215 -142 -520
-274 -792 -343 -245 -62 -349 -74 -663 -74 -314 0 -418 12 -663 74 -274 69
-568 197 -787 341 -77 50 -90 62 -86 81 9 41 18 318 11 318 -4 0 -58 -36 -121
-80 -62 -44 -116 -80 -119 -80 -16 0 -156 135 -244 235 -167 189 -298 380
-396 575 l-47 93 23 91 c33 137 104 337 163 461 l53 111 -29 84 c-40 118 -83
311 -103 464 -24 177 -17 509 14 681 19 108 66 298 78 318 6 10 -29 33 461
-311z"/>
<path d="M1403 4883 c-13 -127 -8 -387 11 -512 27 -182 79 -372 137 -507 l18
-44 -63 -123 c-71 -139 -134 -294 -167 -414 l-22 -81 43 -78 c55 -100 125
-206 209 -314 66 -86 179 -210 191 -210 3 0 118 79 255 175 137 96 249 174
250 172 2 -1 -6 -144 -16 -317 -10 -173 -18 -338 -19 -366 l0 -51 173 -87
c314 -157 586 -231 944 -257 423 -31 850 57 1251 257 l172 87 0 51 c-1 28 -9
193 -19 366 -10 173 -18 316 -17 317 2 2 114 -76 251 -172 137 -96 252 -175
255 -175 12 0 125 124 191 210 84 108 154 214 209 314 l43 78 -22 81 c-33 120
-96 275 -167 414 l-63 123 18 44 c119 275 179 660 152 961 -7 71 -14 131 -16
133 -2 2 -162 -107 -356 -243 -194 -136 -358 -249 -365 -252 -7 -2 -37 13 -66
34 -202 148 -491 281 -757 348 -193 48 -301 60 -541 60 -240 0 -348 -12 -541
-60 -266 -67 -555 -200 -757 -348 -29 -21 -59 -36 -66 -34 -7 3 -171 116 -364
251 -192 135 -352 246 -355 246 -3 0 -9 -35 -14 -77z m1194 -758 c307 -85 569
-120 903 -120 334 0 596 35 903 120 70 19 130 35 132 35 9 0 5 -316 -5 -400
-37 -297 -193 -562 -433 -731 -197 -139 -396 -197 -644 -186 -201 8 -361 60
-524 169 -256 171 -421 440 -459 748 -10 84 -14 400 -5 400 2 0 62 -16 132
-35z"/>
<path d="M2720 3814 c0 -7 6 -45 14 -86 57 -299 293 -543 594 -614 87 -21 257
-21 344 0 308 72 547 327 598 634 7 40 10 74 9 76 -2 1 -61 -9 -132 -22 l-127
-25 -11 -41 c-19 -69 -89 -196 -108 -196 -4 0 -63 38 -129 85 -67 47 -124 85
-128 85 -3 0 -2 -76 2 -168 8 -197 17 -181 -116 -189 -155 -10 -283 39 -396
151 -72 72 -114 140 -140 228 -8 26 -20 48 -27 48 -7 0 -65 11 -129 24 -89 17
-118 20 -118 10z"/>
</g>
</svg>
